<svg width="20" height="20" viewBox="0 0 20 20" fill="none" xmlns="http://www.w3.org/2000/svg">
<g clip-path="url(#clip0_6_986)">
<g clip-path="url(#clip1_6_986)">
<path d="M4.16667 3.33325H7.5L9.16665 7.49992L7.08335 8.74992C7.97578 10.5595 9.44039 12.0241 11.25 12.9166L12.5 10.8333L16.6667 12.4999V15.8333C16.6667 16.2753 16.4911 16.6992 16.1785 17.0117C15.866 17.3243 15.442 17.4999 15 17.4999C11.7494 17.3024 8.68348 15.922 6.3807 13.6192C4.07792 11.3164 2.69754 8.25053 2.5 4.99992C2.5 4.55787 2.6756 4.13397 2.98816 3.8214C3.30072 3.50884 3.72464 3.33325 4.16667 3.33325Z" stroke="white" stroke-width="1.66667" stroke-linecap="round" stroke-linejoin="round"/>
</g>
</g>
<defs>
<clipPath id="clip0_6_986">
<rect width="20" height="20" fill="white"/>
</clipPath>
<clipPath id="clip1_6_986">
<rect width="20" height="20" fill="white"/>
</clipPath>
</defs>
</svg>
